<svg xmlns="http://www.w3.org/2000/svg" width="24" height="24" viewBox="0 0 24 24">
  <rect x="1.5" y="1.5" width="21" height="21" rx="5.5" fill="#e03d3d" fill-opacity="0.16" stroke="#e03d3d" stroke-width="1.5"/>
  <g transform="matrix(0.6,0,0,0.6,4.8,4.8)" fill="none" stroke="#e03d3d" stroke-width="3" stroke-linecap="round" stroke-linejoin="round">
    <path d="M14.5 4h-5L7 7H4a2 2 0 0 0-2 2v9a2 2 0 0 0 2 2h16a2 2 0 0 0 2-2V9a2 2 0 0 0-2-2h-3l-2.5-3z"/>
    <circle cx="12" cy="13" r="3"/>
    <line x1="2.5" y1="2.5" x2="21.5" y2="21.5"/>
  </g>
</svg>
